<mxfile host="app.diagrams.net" agent="Mozilla/5.0 (Macintosh; Intel Mac OS X 10.15; rv:136.0) Gecko/20100101 Firefox/136.0" version="26.1.0">
  <diagram name="Page-1" id="JULeqAp-HFAdYSnU9oUd">
    <mxGraphModel dx="1065" dy="840" grid="1" gridSize="10" guides="1" tooltips="1" connect="1" arrows="1" fold="1" page="1" pageScale="1" pageWidth="1169" pageHeight="827" math="0" shadow="0">
      <root>
        <mxCell id="0" />
        <mxCell id="1" parent="0" />
        <mxCell id="Xee5BQSJGhpbqoXsf3RB-1" value="&lt;div&gt;&lt;font style=&quot;font-size: 22px;&quot;&gt;P1&lt;/font&gt;&lt;/div&gt;&lt;div&gt;&lt;font style=&quot;font-size: 18px;&quot;&gt;t-5&lt;/font&gt;&lt;/div&gt;" style="whiteSpace=wrap;html=1;aspect=fixed;" vertex="1" parent="1">
          <mxGeometry x="360" y="320" width="80" height="80" as="geometry" />
        </mxCell>
        <mxCell id="Xee5BQSJGhpbqoXsf3RB-2" value="&lt;div&gt;&lt;font style=&quot;font-size: 22px;&quot;&gt;P2&lt;/font&gt;&lt;/div&gt;&lt;div&gt;&lt;font style=&quot;font-size: 18px;&quot;&gt;t-3&lt;/font&gt;&lt;/div&gt;" style="whiteSpace=wrap;html=1;aspect=fixed;" vertex="1" parent="1">
          <mxGeometry x="440" y="320" width="80" height="80" as="geometry" />
        </mxCell>
        <mxCell id="Xee5BQSJGhpbqoXsf3RB-3" value="&lt;div&gt;&lt;font style=&quot;font-size: 22px;&quot;&gt;P3&lt;/font&gt;&lt;/div&gt;&lt;div&gt;&lt;font style=&quot;font-size: 18px;&quot;&gt;t-1&lt;/font&gt;&lt;/div&gt;" style="whiteSpace=wrap;html=1;aspect=fixed;" vertex="1" parent="1">
          <mxGeometry x="520" y="320" width="80" height="80" as="geometry" />
        </mxCell>
        <mxCell id="Xee5BQSJGhpbqoXsf3RB-6" style="rounded=0;orthogonalLoop=1;jettySize=auto;html=1;entryX=0;entryY=1;entryDx=0;entryDy=0;strokeColor=default;" edge="1" parent="1" source="Xee5BQSJGhpbqoXsf3RB-5" target="Xee5BQSJGhpbqoXsf3RB-3">
          <mxGeometry relative="1" as="geometry" />
        </mxCell>
        <mxCell id="Xee5BQSJGhpbqoXsf3RB-5" value="&lt;div&gt;&lt;font style=&quot;font-size: 22px;&quot;&gt;P4&lt;/font&gt;&lt;/div&gt;&lt;div&gt;&lt;font style=&quot;font-size: 18px;&quot;&gt;t-2&lt;/font&gt;&lt;/div&gt;" style="whiteSpace=wrap;html=1;aspect=fixed;" vertex="1" parent="1">
          <mxGeometry x="440" y="480" width="80" height="80" as="geometry" />
        </mxCell>
        <mxCell id="Xee5BQSJGhpbqoXsf3RB-9" style="rounded=0;orthogonalLoop=1;jettySize=auto;html=1;entryX=0.5;entryY=0;entryDx=0;entryDy=0;" edge="1" parent="1" source="Xee5BQSJGhpbqoXsf3RB-8" target="Xee5BQSJGhpbqoXsf3RB-3">
          <mxGeometry relative="1" as="geometry" />
        </mxCell>
        <mxCell id="Xee5BQSJGhpbqoXsf3RB-8" value="&lt;font style=&quot;font-size: 22px;&quot;&gt;Scheduled process&lt;/font&gt;" style="text;html=1;align=center;verticalAlign=middle;resizable=0;points=[];autosize=1;strokeColor=none;fillColor=none;" vertex="1" parent="1">
          <mxGeometry x="500" y="210" width="210" height="40" as="geometry" />
        </mxCell>
      </root>
    </mxGraphModel>
  </diagram>
</mxfile>
